{
    "asset" : {
        "generator" : "Khronos glTF Blender I/O v1.6.16",
        "version" : "2.0"
    },
    "scene" : 0,
    "scenes" : [
        {
            "name" : "Scene",
            "nodes" : [
                0,
                1,
                2,
                3,
                4
            ]
        }
    ],
    "nodes" : [
        {
            "name" : "Light",
            "rotation" : [
                0.16907575726509094,
                0.7558803558349609,
                -0.27217137813568115,
                0.570947527885437
            ],
            "translation" : [
                -3.7347326278686523,
                5.706389427185059,
                -0.7748758792877197
            ]
        },
        {
            "name" : "Camera",
            "rotation" : [
                0.2518179714679718,
                0.3398200273513794,
                -0.06642824411392212,
                0.9037131071090698
            ],
            "translation" : [
                0.25503426790237427,
                0.7497339248657227,
                0.4146421551704407
            ]
        },
        {
            "mesh" : 0,
            "name" : "\u5e73\u9762",
            "scale" : [
                0.10499999672174454,
                1,
                0.148499995470047
            ]
        },
        {
            "mesh" : 1,
            "name" : "\u5e73\u9762.001",
            "rotation" : [
                0,
                0.11841209977865219,
                0,
                0.9929645657539368
            ],
            "scale" : [
                0.05999999865889549,
                1,
                0.11749999970197678
            ],
            "translation" : [
                -0.1810777336359024,
                9.14260745048523e-05,
                0.018255580216646194
            ]
        },
        {
            "mesh" : 2,
            "name" : "\u30c6\u30ad\u30b9\u30c8",
            "rotation" : [
                0.6267706155776978,
                0,
                0,
                0.7792038321495056
            ],
            "scale" : [
                0.04934541881084442,
                0.04934541881084442,
                0.04934541881084442
            ],
            "translation" : [
                -0.10564122349023819,
                0.05660638213157654,
                -0.14133569598197937
            ]
        }
    ],
    "materials" : [
        {
            "doubleSided" : true,
            "name" : "\u30de\u30c6\u30ea\u30a2\u30eb",
            "pbrMetallicRoughness" : {
                "baseColorTexture" : {
                    "index" : 0
                },
                "metallicFactor" : 0,
                "roughnessFactor" : 0.5
            }
        },
        {
            "doubleSided" : true,
            "name" : "\u30de\u30c6\u30ea\u30a2\u30eb.001",
            "pbrMetallicRoughness" : {
                "baseColorTexture" : {
                    "index" : 1
                },
                "metallicFactor" : 0,
                "roughnessFactor" : 0.5
            }
        },
        {
            "doubleSided" : true,
            "name" : "\u30de\u30c6\u30ea\u30a2\u30eb.002",
            "pbrMetallicRoughness" : {
                "baseColorFactor" : [
                    0.0003062129835598171,
                    0.587994396686554,
                    0.8000000715255737,
                    1
                ],
                "metallicFactor" : 0,
                "roughnessFactor" : 0.5
            }
        }
    ],
    "meshes" : [
        {
            "name" : "\u5e73\u9762",
            "primitives" : [
                {
                    "attributes" : {
                        "POSITION" : 0,
                        "NORMAL" : 1,
                        "TEXCOORD_0" : 2
                    },
                    "indices" : 3,
                    "material" : 0
                }
            ]
        },
        {
            "name" : "\u5e73\u9762.001",
            "primitives" : [
                {
                    "attributes" : {
                        "POSITION" : 4,
                        "NORMAL" : 5,
                        "TEXCOORD_0" : 6
                    },
                    "indices" : 3,
                    "material" : 1
                }
            ]
        },
        {
            "name" : "\u30c6\u30ad\u30b9\u30c8",
            "primitives" : [
                {
                    "attributes" : {
                        "POSITION" : 7,
                        "NORMAL" : 8,
                        "TEXCOORD_0" : 9
                    },
                    "indices" : 10,
                    "material" : 2
                }
            ]
        }
    ],
    "textures" : [
        {
            "sampler" : 0,
            "source" : 0
        },
        {
            "sampler" : 0,
            "source" : 1
        }
    ],
    "images" : [
        {
            "bufferView" : 4,
            "mimeType" : "image/png",
            "name" : "jihyounakami 1"
        },
        {
            "bufferView" : 8,
            "mimeType" : "image/png",
            "name" : "jihyou_01"
        }
    ],
    "accessors" : [
        {
            "bufferView" : 0,
            "componentType" : 5126,
            "count" : 4,
            "max" : [
                1,
                0,
                1
            ],
            "min" : [
                -1,
                0,
                -1
            ],
            "type" : "VEC3"
        },
        {
            "bufferView" : 1,
            "componentType" : 5126,
            "count" : 4,
            "type" : "VEC3"
        },
        {
            "bufferView" : 2,
            "componentType" : 5126,
            "count" : 4,
            "type" : "VEC2"
        },
        {
            "bufferView" : 3,
            "componentType" : 5123,
            "count" : 6,
            "type" : "SCALAR"
        },
        {
            "bufferView" : 5,
            "componentType" : 5126,
            "count" : 4,
            "max" : [
                1,
                0,
                1
            ],
            "min" : [
                -1,
                0,
                -1
            ],
            "type" : "VEC3"
        },
        {
            "bufferView" : 6,
            "componentType" : 5126,
            "count" : 4,
            "type" : "VEC3"
        },
        {
            "bufferView" : 7,
            "componentType" : 5126,
            "count" : 4,
            "type" : "VEC2"
        },
        {
            "bufferView" : 9,
            "componentType" : 5126,
            "count" : 2719,
            "max" : [
                5.956705570220947,
                0,
                0.0374348983168602
            ],
            "min" : [
                0.0380859375,
                0,
                -0.533203125
            ],
            "type" : "VEC3"
        },
        {
            "bufferView" : 10,
            "componentType" : 5126,
            "count" : 2719,
            "type" : "VEC3"
        },
        {
            "bufferView" : 11,
            "componentType" : 5126,
            "count" : 2719,
            "type" : "VEC2"
        },
        {
            "bufferView" : 12,
            "componentType" : 5123,
            "count" : 6036,
            "type" : "SCALAR"
        }
    ],
    "bufferViews" : [
        {
            "buffer" : 0,
            "byteLength" : 48,
            "byteOffset" : 0
        },
        {
            "buffer" : 0,
            "byteLength" : 48,
            "byteOffset" : 48
        },
        {
            "buffer" : 0,
            "byteLength" : 32,
            "byteOffset" : 96
        },
        {
            "buffer" : 0,
            "byteLength" : 12,
            "byteOffset" : 128
        },
        {
            "buffer" : 0,
            "byteLength" : 164782,
            "byteOffset" : 140
        },
        {
            "buffer" : 0,
            "byteLength" : 48,
            "byteOffset" : 164924
        },
        {
            "buffer" : 0,
            "byteLength" : 48,
            "byteOffset" : 164972
        },
        {
            "buffer" : 0,
            "byteLength" : 32,
            "byteOffset" : 165020
        },
        {
            "buffer" : 0,
            "byteLength" : 30914,
            "byteOffset" : 165052
        },
        {
            "buffer" : 0,
            "byteLength" : 32628,
            "byteOffset" : 195968
        },
        {
            "buffer" : 0,
            "byteLength" : 32628,
            "byteOffset" : 228596
        },
        {
            "buffer" : 0,
            "byteLength" : 21752,
            "byteOffset" : 261224
        },
        {
            "buffer" : 0,
            "byteLength" : 12072,
            "byteOffset" : 282976
        }
    ],
    "samplers" : [
        {
            "magFilter" : 9729,
            "minFilter" : 9987
        }
    ],
    "buffers" : [
        {
            "byteLength" : 295048,
            "uri" : "data:application/octet-stream;base64,"
        }
    ]
}
